# xmcd
#
# Track frame offsets: 
#        187
#        19290
#        43985
#        60157
#        83337
#        104317
#        122257
#        141977
#        161795
#        177352
#        198192
#
# Disc length: 2982 seconds
#
# Revision: 2
# Processed by: cddbd v1.5.2PL0 Copyright (c) Steve Scherf et al.
# Submitted via: ExactAudioCopy v1.0b3
#
DISCID=890ba40b
DTITLE=Dead End - Zero
DYEAR=1989
DGENRE=Hard Rock
TTITLE0=I Want Your Love
TTITLE1=Sleep In The Sky
TTITLE2=Baby Blue
TTITLE3=So Sweet So Lonley
TTITLE4=Crash48
TTITLE5=Trickstar
TTITLE6=Hyper Desire
TTITLE7=Promissed Land
TTITLE8=Spy
TTITLE9=I'm In A Coma
TTITLE10=Serafine
EXTD=
EXTT0=
EXTT1=
EXTT2=
EXTT3=
EXTT4=
EXTT5=
EXTT6=
EXTT7=
EXTT8=
EXTT9=
EXTT10=
PLAYORDER=
